REM DIRINDEX 1\2\5,1\2\6,1\2\7,1\2\8,1\3\9,1\3\10,1\3\11,1\4\12,1\4\13,1\4\14,1\4\15,1\4\16
REM DIRNAME folder01,folder02,folder03,folder04,folder05,folder06,folder07,folder08,folder09,folder10,folder11,folder12,folder13,folder14,folder15,folder16
TITLE ""
FILE "1200_sec02_0400_0406.mp3" MP3
  TRACK 01 AUDIO
    TITLE "0:"
    INDEX 01 00:00:00
  TRACK 02 AUDIO
    TITLE "12:cjc034_05240"
    INDEX 01 00:00:17
  TRACK 03 AUDIO
    TITLE "0:"
    INDEX 01 00:01:40
  TRACK 04 AUDIO
    TITLE "13:cjc034_05241"
    INDEX 01 00:01:73
  TRACK 05 AUDIO
    TITLE "0:"
    INDEX 01 00:04:21
  TRACK 06 AUDIO
    TITLE "14:cjc034_05242"
    INDEX 01 00:04:54
  TRACK 07 AUDIO
    TITLE "0:"
    INDEX 01 00:06:00
  TRACK 08 AUDIO
    TITLE "15:cjc034_05243"
    INDEX 01 00:06:35
  TRACK 09 AUDIO
    TITLE "0:"
    INDEX 01 00:10:25
  TRACK 10 AUDIO
    TITLE "12:cjc034_05244"
    INDEX 01 00:11:56
  TRACK 11 AUDIO
    TITLE "0:"
    INDEX 01 00:12:63
  TRACK 12 AUDIO
    TITLE "13:cjc034_05245"
    INDEX 01 00:13:20
  TRACK 13 AUDIO
    TITLE "0:"
    INDEX 01 00:18:07
  TRACK 14 AUDIO
    TITLE "14:cjc034_05246"
    INDEX 01 00:18:41
  TRACK 15 AUDIO
    TITLE "0:"
    INDEX 01 00:19:48
  TRACK 16 AUDIO
    TITLE "15:cjc034_05247"
    INDEX 01 00:20:06
  TRACK 17 AUDIO
    TITLE "0:"
    INDEX 01 00:24:06
  TRACK 18 AUDIO
    TITLE "16:cjc034_05248"
    INDEX 01 00:25:41
  TRACK 19 AUDIO
    TITLE "0:"
    INDEX 01 00:27:06
  TRACK 20 AUDIO
    TITLE "12:cjc034_05249"
    INDEX 01 00:28:10
  TRACK 21 AUDIO
    TITLE "0:"
    INDEX 01 00:29:27
  TRACK 22 AUDIO
    TITLE "13:cjc034_05250"
    INDEX 01 00:29:60
  TRACK 23 AUDIO
    TITLE "0:"
    INDEX 01 00:32:09
  TRACK 24 AUDIO
    TITLE "14:cjc034_05251"
    INDEX 01 00:32:39
  TRACK 25 AUDIO
    TITLE "0:"
    INDEX 01 00:33:58
  TRACK 26 AUDIO
    TITLE "15:cjc034_05252"
    INDEX 01 00:34:16
  TRACK 27 AUDIO
    TITLE "0:"
    INDEX 01 00:37:42
  TRACK 28 AUDIO
    TITLE "12:cjc034_05253"
    INDEX 01 00:38:73
  TRACK 29 AUDIO
    TITLE "0:"
    INDEX 01 00:40:24
  TRACK 30 AUDIO
    TITLE "13:cjc034_05254"
    INDEX 01 00:40:60
  TRACK 31 AUDIO
    TITLE "0:"
    INDEX 01 00:42:10
  TRACK 32 AUDIO
    TITLE "14:cjc034_05255"
    INDEX 01 00:42:39
  TRACK 33 AUDIO
    TITLE "0:"
    INDEX 01 00:43:66
  TRACK 34 AUDIO
    TITLE "15:cjc034_05256"
    INDEX 01 00:44:26
  TRACK 35 AUDIO
    TITLE "0:"
    INDEX 01 00:49:57
  TRACK 36 AUDIO
    TITLE "12:cjc034_05257"
    INDEX 01 00:51:16
  TRACK 37 AUDIO
    TITLE "0:"
    INDEX 01 00:52:22
  TRACK 38 AUDIO
    TITLE "13:cjc034_05258"
    INDEX 01 00:52:55
  TRACK 39 AUDIO
    TITLE "0:"
    INDEX 01 00:56:06
  TRACK 40 AUDIO
    TITLE "14:cjc034_05259"
    INDEX 01 00:56:41
  TRACK 41 AUDIO
    TITLE "0:"
    INDEX 01 00:57:48
  TRACK 42 AUDIO
    TITLE "15:cjc034_05260"
    INDEX 01 00:58:05
  TRACK 43 AUDIO
    TITLE "0:"
    INDEX 01 01:03:39
  TRACK 44 AUDIO
    TITLE "12:cjc034_05261"
    INDEX 01 01:04:74
  TRACK 45 AUDIO
    TITLE "0:"
    INDEX 01 01:05:69
  TRACK 46 AUDIO
    TITLE "13:cjc034_05262"
    INDEX 01 01:06:28
  TRACK 47 AUDIO
    TITLE "0:"
    INDEX 01 01:07:39
  TRACK 48 AUDIO
    TITLE "14:cjc034_05263"
    INDEX 01 01:07:74
  TRACK 49 AUDIO
    TITLE "0:"
    INDEX 01 01:08:70
  TRACK 50 AUDIO
    TITLE "15:cjc034_05264"
    INDEX 01 01:09:28
  TRACK 51 AUDIO
    TITLE "0:"
    INDEX 01 01:12:71
  TRACK 52 AUDIO
    TITLE "12:cjc034_05265"
    INDEX 01 01:14:33
  TRACK 53 AUDIO
    TITLE "0:"
    INDEX 01 01:15:31
  TRACK 54 AUDIO
    TITLE "13:cjc034_05266"
    INDEX 01 01:15:64
  TRACK 55 AUDIO
    TITLE "0:"
    INDEX 01 01:18:72
  TRACK 56 AUDIO
    TITLE "14:cjc034_05267"
    INDEX 01 01:19:34
  TRACK 57 AUDIO
    TITLE "0:"
    INDEX 01 01:20:30
  TRACK 58 AUDIO
    TITLE "15:cjc034_05268"
    INDEX 01 01:20:65
  TRACK 59 AUDIO
    TITLE "0:"
    INDEX 01 01:25:09
